<?xml version="1.0" standalone="no"?>
<!DOCTYPE svg PUBLIC "-//W3C//DTD SVG 20010904//EN"
 "http://www.w3.org/TR/2001/REC-SVG-20010904/DTD/svg10.dtd">
<svg version="1.0" xmlns="http://www.w3.org/2000/svg"
 width="128.000000pt" height="128.000000pt" viewBox="0 0 128.000000 128.000000"
 preserveAspectRatio="xMidYMid meet">

<g transform="translate(0.000000,128.000000) scale(0.100000,-0.100000)"
fill="#000000" stroke="none">
<path d="M262 1266 c-77 -27 -131 -117 -117 -193 l6 -33 -56 0 -55 0 0 -130 0
-130 250 0 250 0 0 70 0 70 110 0 110 0 0 -70 0 -70 240 0 240 0 0 130 0 130
-53 0 -52 0 0 58 c0 90 -48 149 -138 174 -73 19 -111 2 -242 -113 l-115 -100
-109 95 c-142 125 -185 143 -269 112z m137 -156 c33 -27 62 -54 66 -60 4 -6
-25 -10 -84 -10 -82 0 -91 2 -105 22 -21 30 -20 54 4 78 30 30 53 25 119 -30z
m601 30 c25 -25 25 -51 3 -79 -16 -20 -26 -22 -108 -19 l-90 3 68 58 c73 61
96 68 127 37z"/>
<path d="M120 330 l0 -330 210 0 210 0 0 330 0 330 -210 0 -210 0 0 -330z"/>
<path d="M760 330 l0 -330 200 0 200 0 0 330 0 330 -200 0 -200 0 0 -330z"/>
</g>
</svg>
